<?xml version="1.0" encoding="UTF-8"?>
<svg version="1.1" xmlns="http://www.w3.org/2000/svg" width="512" height="512">
<path d="M0 0 C2.69366238 2.15640185 5.25907632 4.38990469 7.796875 6.7265625 C8.42722656 7.26539062 9.05757813 7.80421875 9.70703125 8.359375 C21.30668989 18.87569422 28.24900807 34.81398363 31.796875 49.7265625 C35.41462156 48.35768542 38.71747476 46.70343448 42.109375 44.8515625 C60.80865942 35.46750443 82.45802239 34.84006945 102.421875 40.3515625 C115.71844522 44.88335235 126.02980198 51.74276449 135.796875 61.7265625 C136.52390625 62.42136719 137.2509375 63.11617188 138 63.83203125 C150.13244879 76.179425 157.03317747 94.59317435 157.796875 111.7265625 C157.83683594 112.39171875 157.87679688 113.056875 157.91796875 113.7421875 C158.41348249 129.48203566 154.73762117 145.57924614 146.03125 158.7734375 C144.63707558 160.80676851 144.63707558 160.80676851 143.796875 163.7265625 C144.951875 163.7471875 146.106875 163.7678125 147.296875 163.7890625 C164.20577566 165.72986399 181.20120036 178.1210594 191.796875 190.7265625 C203.17494064 205.79555052 209.41544192 222.56381541 209.234375 241.5390625 C209.22535156 242.67907715 209.21632813 243.8190918 209.20703125 244.99365234 C208.7994156 264.89039137 201.23827497 282.12811894 187.796875 296.7265625 C187.25804687 297.35691406 186.71921875 297.98726563 186.1640625 298.63671875 C177.02626604 308.715846 160.93457588 318.03671138 147.421875 319.6015625 C145.6275 319.6634375 145.6275 319.6634375 143.796875 319.7265625 C144.35955078 320.69142578 144.35955078 320.69142578 144.93359375 321.67578125 C156.9423527 342.88016417 160.87102026 364.94927297 155.0546875 388.765625 C150.70619951 403.04251918 143.39141253 414.3766319 132.796875 424.7265625 C131.71986328 425.83451172 131.71986328 425.83451172 130.62109375 426.96484375 C116.5227125 440.63841502 96.09942473 446.59020315 76.8515625 446.76171875 C62.04499214 446.1677174 49.53616231 442.77439208 36.7109375 435.3359375 C34.05990776 433.56541265 34.05990776 433.56541265 31.796875 433.7265625 C31.51714844 434.73074219 31.23742187 435.73492187 30.94921875 436.76953125 C27.00053934 450.44282129 21.31495969 461.98772146 11.796875 472.7265625 C11.26707031 473.33886719 10.73726563 473.95117188 10.19140625 474.58203125 C-2.7885359 488.58754907 -21.857527 497.1649584 -40.79296875 498.04296875 C-62.84865871 498.66450308 -82.76792289 494.01046795 -99.6875 479.1171875 C-111.23364253 468.14476634 -124.75639435 451.80828962 -125.29296875 434.89453125 C-125.26332031 434.17910156 -125.23367187 433.46367187 -125.203125 432.7265625 C-126.20730469 433.25765625 -127.21148437 433.78875 -128.24609375 434.3359375 C-150.14561551 445.73295732 -172.18150275 450.08926475 -196.36328125 443.0859375 C-206.87373305 439.55802959 -216.99574512 434.2074888 -225.203125 426.7265625 C-226.02167969 425.99953125 -226.84023437 425.2725 -227.68359375 424.5234375 C-243.23019958 409.94114458 -251.16942953 389.71779527 -252.203125 368.65625 C-252.203125 352.98772846 -248.39730306 338.86644749 -240.59375 325.30859375 C-239.04506525 322.92186955 -239.04506525 322.92186955 -239.203125 320.7265625 C-240.70939453 320.30697266 -240.70939453 320.30697266 -242.24609375 319.87890625 C-255.91463342 315.93159869 -267.47657435 310.25099972 -278.203125 300.7265625 C-279.23179687 299.83904297 -279.23179687 299.83904297 -280.28125 298.93359375 C-293.89302168 286.36682029 -302.88080092 266.83778963 -303.63671875 248.39453125 C-303.6604083 246.23450451 -303.66123686 244.0741208 -303.640625 241.9140625 C-303.63160156 240.77404785 -303.62257813 239.6340332 -303.61328125 238.45947266 C-303.2056656 218.56273363 -295.64452497 201.32500606 -282.203125 186.7265625 C-281.66429687 186.09621094 -281.12546875 185.46585938 -280.5703125 184.81640625 C-270.18719782 173.36367423 -253.46302227 164.87841505 -238.203125 163.7265625 C-238.49034424 163.15848877 -238.77756348 162.59041504 -239.07348633 162.00512695 C-250.84623578 138.53790747 -256.01766643 116.85070573 -248.015625 91.1015625 C-243.32081967 78.05136449 -236.93963644 68.36598622 -227.203125 58.7265625 C-226.48382813 57.98535156 -225.76453125 57.24414062 -225.0234375 56.48046875 C-210.24026652 42.17147496 -189.38457717 36.87278044 -169.3125 36.69140625 C-154.49890378 37.32671738 -142.06090023 41.75692733 -129.203125 48.7265625 C-127.87284368 49.39929857 -126.54098437 50.06902578 -125.203125 50.7265625 C-125.14125 49.6746875 -125.079375 48.6228125 -125.015625 47.5390625 C-122.52310057 28.40725337 -109.06543523 11.485292 -94.3359375 -0.10546875 C-66.04493633 -19.68340597 -28.19196016 -20.00941562 0 0 Z M-69.203125 226.7265625 C-70.54503906 227.58314453 -70.54503906 227.58314453 -71.9140625 228.45703125 C-75.62207565 232.13340607 -75.24392589 236.25528672 -75.265625 241.2890625 C-75.27110352 242.27962646 -75.27658203 243.27019043 -75.28222656 244.29077148 C-75.04367084 250.08910683 -74.32634565 253.85265863 -70.09545898 257.95483398 C-67.56139527 260.01350177 -64.87266337 261.84889497 -62.203125 263.7265625 C-61.34654297 265.06847656 -61.34654297 265.06847656 -60.47265625 266.4375 C-56.79628143 270.14551315 -52.67440078 269.76736339 -47.640625 269.7890625 C-46.15477905 269.79728027 -46.15477905 269.79728027 -44.63891602 269.80566406 C-38.84058067 269.56710834 -35.07702887 268.84978315 -30.97485352 264.61889648 C-28.91618573 262.08483277 -27.08079253 259.39610087 -25.203125 256.7265625 C-24.30851562 256.15550781 -23.41390625 255.58445312 -22.4921875 254.99609375 C-18.78417435 251.31971893 -19.16232411 247.19783828 -19.140625 242.1640625 C-19.13514648 241.17349854 -19.12966797 240.18293457 -19.12402344 239.16235352 C-19.36257916 233.36401817 -20.07990435 229.60046637 -24.31079102 225.49829102 C-26.84485473 223.43962323 -29.53358663 221.60423003 -32.203125 219.7265625 C-32.77417969 218.83195313 -33.34523438 217.93734375 -33.93359375 217.015625 C-37.60996857 213.30761185 -41.73184922 213.68576161 -46.765625 213.6640625 C-47.75618896 213.65858398 -48.74675293 213.65310547 -49.76733398 213.64746094 C-60.16988576 214.07544381 -63.46822106 218.57307108 -69.203125 226.7265625 Z " fill="#9776A8" transform="translate(303.203125,14.2734375)"/>
<path d="M0 0 C2.69366238 2.15640185 5.25907632 4.38990469 7.796875 6.7265625 C8.42722656 7.26539062 9.05757813 7.80421875 9.70703125 8.359375 C21.30668989 18.87569422 28.24900807 34.81398363 31.796875 49.7265625 C35.41462156 48.35768542 38.71747476 46.70343448 42.109375 44.8515625 C60.80865942 35.46750443 82.45802239 34.84006945 102.421875 40.3515625 C115.71844522 44.88335235 126.02980198 51.74276449 135.796875 61.7265625 C136.52390625 62.42136719 137.2509375 63.11617188 138 63.83203125 C150.13244879 76.179425 157.03317747 94.59317435 157.796875 111.7265625 C157.83683594 112.39171875 157.87679688 113.056875 157.91796875 113.7421875 C158.54690903 133.72029062 152.40367974 153.52301311 138.74982262 168.28928947 C138.26084307 168.80886789 137.77186352 169.32844631 137.26806641 169.86376953 C136.74542521 170.4241498 136.222784 170.98453007 135.68430519 171.56189156 C130.16870166 177.4477641 124.51330384 183.19257263 118.8203125 188.90625 C118.01155104 189.71925253 118.01155104 189.71925253 117.18645096 190.54867935 C114.34405938 193.40585976 111.49896641 196.26031472 108.65136719 199.11230469 C105.74234716 202.02684371 102.84276173 204.95058766 99.94516563 207.8764782 C97.68180531 210.15857776 95.41165192 212.43382942 93.13966751 214.70734024 C92.06803133 215.78196752 90.9988524 216.85905194 89.93238449 217.93880844 C72.37912324 235.69549192 53.02798203 245.99254054 27.796875 246.2265625 C7.58595791 246.02360373 -11.97596251 239.46572866 -27.203125 225.7265625 C-28.47778046 223.8958845 -29.74856541 222.06250598 -31.015625 220.2265625 C-34.89245279 215.70946007 -38.41429047 214.91274018 -44.12597656 214.4309082 C-53.65695343 214.13503182 -53.65695343 214.13503182 -61.90234375 218.33203125 C-63.8639297 220.35040161 -65.48934572 222.49265972 -67.08203125 224.80859375 C-69.23781267 227.774282 -70.96072396 229.10251277 -74.203125 230.7265625 C-74.56664062 229.49421875 -74.93015625 228.261875 -75.3046875 226.9921875 C-79.38746242 213.43051294 -83.94189835 201.65480994 -93.203125 190.7265625 C-93.70070312 190.07300781 -94.19828125 189.41945312 -94.7109375 188.74609375 C-107.00546892 173.26981173 -126.81523824 165.27342724 -145.95951843 162.93773079 C-149.76391267 162.57966114 -153.55465353 162.59614722 -157.37304688 162.61303711 C-158.69153122 162.61281807 -158.69153122 162.61281807 -160.03665161 162.6125946 C-162.91508533 162.61328609 -165.79345271 162.62104241 -168.671875 162.62890625 C-170.67826299 162.63077315 -172.68465143 162.63219577 -174.69104004 162.63319397 C-179.95171382 162.63699774 -185.21235966 162.64680962 -190.47302246 162.65789795 C-195.84919863 162.66815822 -201.22537935 162.67270145 -206.6015625 162.67773438 C-217.13542889 162.68843393 -227.66927462 162.70548448 -238.203125 162.7265625 C-239.49224948 160.36341942 -240.77511431 157.9972147 -242.0546875 155.62890625 C-242.4163501 154.96741577 -242.7780127 154.30592529 -243.15063477 153.62438965 C-253.25825984 134.85555562 -254.44126464 112.86518415 -248.5625 92.56640625 C-245.0368198 82.06259133 -239.68971 71.92175431 -232.203125 63.7265625 C-231.07777344 62.48132813 -231.07777344 62.48132813 -229.9296875 61.2109375 C-214.8657412 45.3391455 -194.9361172 37.4951774 -173.25390625 36.7265625 C-157.30499631 36.51243185 -143.09981483 41.30085038 -129.203125 48.7265625 C-127.87202128 49.39766988 -126.53958812 50.06619249 -125.203125 50.7265625 C-125.14125 49.6746875 -125.079375 48.6228125 -125.015625 47.5390625 C-122.52310057 28.40725337 -109.06543523 11.485292 -94.3359375 -0.10546875 C-66.04493633 -19.68340597 -28.19196016 -20.00941562 0 0 Z " fill="#EC7060" transform="translate(303.203125,14.2734375)"/>
<path d="M0 0 C19.19039699 3.15458581 38.39980256 13.88832277 50.18066406 29.57177734 C60.77542931 44.46555578 66.61303728 60.41674159 66.4375 78.8125 C66.42847656 79.95251465 66.41945313 81.0925293 66.41015625 82.26708984 C66.0025406 102.16382887 58.44139997 119.40155644 45 134 C44.46117187 134.63035156 43.92234375 135.26070312 43.3671875 135.91015625 C34.22939104 145.9892835 18.13770088 155.31014888 4.625 156.875 C3.42875 156.91625 2.2325 156.9575 1 157 C1.56267578 157.96486328 1.56267578 157.96486328 2.13671875 158.94921875 C14.1454777 180.15360167 18.07414526 202.22271047 12.2578125 226.0390625 C7.90932451 240.31595668 0.59453753 251.6500694 -10 262 C-11.07701172 263.10794922 -11.07701172 263.10794922 -12.17578125 264.23828125 C-26.2741625 277.91185252 -46.69745027 283.86364065 -65.9453125 284.03515625 C-82.95304917 283.35284979 -96.33162867 278.49603686 -111 270 C-111 269.34 -111 268.68 -111 268 C-111.56666885 267.75074768 -112.13333771 267.50149536 -112.71717834 267.24468994 C-121.84676785 262.26685551 -129.24650162 252.94315391 -136.59765625 245.640625 C-137.12888029 245.11347649 -137.66010433 244.58632797 -138.20742607 244.04320526 C-141.01529604 241.25599668 -143.82001876 238.46566398 -146.62231445 235.67285156 C-149.48009193 232.82614169 -152.3493723 229.99132422 -155.22136784 227.15896988 C-157.46322983 224.94351429 -159.69591078 222.71896776 -161.92638969 220.4920578 C-162.97892801 219.44431761 -164.0347729 218.39988606 -165.09428596 217.35919952 C-182.12181791 200.6157922 -193.84486049 181.03518129 -194.29296875 156.61328125 C-194.42724494 135.20965601 -188.60559235 115.26651712 -174 99 C-172.17336642 97.65750283 -170.33992247 96.32422589 -168.5 95 C-165.85981403 92.79917322 -164.23873654 91.24032603 -163.57763672 87.80566406 C-163.22658782 82.8283969 -163.48209748 77.90369265 -163.95483398 72.94189453 C-164 71 -164 71 -163 68 C-160.5230618 69.21344952 -158.09746276 70.489404 -155.671875 71.8046875 C-135.52276153 82.57439902 -113.00358323 85.97613834 -90.73828125 79.38671875 C-86.62561303 77.86112082 -82.64249441 76.2072882 -78.6875 74.3125 C-78.07777344 74.02246094 -77.46804688 73.73242188 -76.83984375 73.43359375 C-65.29854025 67.46565476 -56.12690004 57.4177386 -47.0703125 48.30078125 C-45.86526535 47.09453817 -44.65984407 45.88866873 -43.45407104 44.68315125 C-40.94835907 42.1758883 -38.446001 39.66534428 -35.94628906 37.15209961 C-32.75405967 33.94279947 -29.55520455 30.740204 -26.35405159 27.53980732 C-23.87269097 25.05817407 -21.39394992 22.57393825 -18.91607285 20.08882713 C-17.73738454 18.90697571 -16.55810642 17.7257122 -15.37820816 16.54506874 C-13.73024634 14.89492281 -12.08562619 13.24151658 -10.44189453 11.5871582 C-9.96286179 11.10857864 -9.48382904 10.62999908 -8.99028015 10.13691711 C-5.78644904 6.9029722 -2.87231029 3.52515974 0 0 Z " fill="#61B872" transform="translate(446,177)"/>
<path d="M0 0 C0.83015625 0.75023438 1.6603125 1.50046875 2.515625 2.2734375 C17.04035921 16.05888883 25.82026339 34.98134432 27 55 C27.04125 55.66902344 27.0825 56.33804688 27.125 57.02734375 C27.7518917 78.06739637 20.89249192 97.81346492 6.47119141 113.13720703 C5.6872296 113.97777743 5.6872296 113.97777743 4.88743019 114.83532906 C-0.62817334 120.7212016 -6.28357116 126.46601013 -11.9765625 132.1796875 C-12.78532396 132.99269003 -12.78532396 132.99269003 -13.61042404 133.82211685 C-16.45281562 136.67929726 -19.29790859 139.53375222 -22.14550781 142.38574219 C-25.05452784 145.30028121 -27.95411327 148.22402516 -30.85170937 151.1499157 C-33.11506969 153.43201526 -35.38522308 155.70726692 -37.65720749 157.98077774 C-38.72884367 159.05540502 -39.7980226 160.13248944 -40.86449051 161.21224594 C-58.41775176 178.96892942 -77.76889297 189.26597804 -103 189.5 C-123.47430269 189.29439631 -142.41944557 182.57174081 -158 169 C-161.15075103 165.78475991 -164.12551986 162.46357113 -167 159 C-166.505 158.01 -166.505 158.01 -166 157 C-163.82999097 156.39203631 -161.63696924 155.86580961 -159.4375 155.375 C-144.64719451 151.74458716 -131.37801402 144.19733092 -121 133 C-120.22076172 132.21109375 -120.22076172 132.21109375 -119.42578125 131.40625 C-103.14707994 114.1398522 -99.59195158 93.42513242 -100.12475777 70.64250946 C-100.2159304 66.49329481 -100.26674514 62.34388197 -100.31990719 58.19403458 C-100.41860677 50.49007211 -100.53202911 42.78731877 -100.7199707 35.08496094 C-100.84972313 29.70355372 -100.92554623 24.32371652 -100.96577263 18.9409256 C-100.99105709 16.89770605 -101.03621894 14.85462937 -101.1019001 12.81230927 C-101.6015061 -3.13015098 -101.6015061 -3.13015098 -97.61669922 -7.78263855 C-94.77935666 -9.62975268 -92.18609446 -10.8799868 -89 -12 C-88.32073959 -12.3063588 -87.64147919 -12.61271759 -86.94163513 -12.92835999 C-80.35669308 -15.83849481 -73.10884922 -17.85680244 -66 -19 C-65.27167969 -19.12246094 -64.54335938 -19.24492188 -63.79296875 -19.37109375 C-41.24204018 -22.40032296 -16.87663385 -15.41737604 0 0 Z " fill="#EECD49" transform="translate(434,71)"/>
<path d="M0 0 C1.77343871 -0.00202963 3.54687659 -0.00494837 5.3203125 -0.00869751 C9.00789463 -0.01307917 12.69525634 -0.00682595 16.3828125 0.00732422 C21.05877237 0.02441353 25.73421524 0.0145497 30.41015625 -0.00339317 C34.06351466 -0.01434476 37.7167548 -0.0107332 41.37011719 -0.0030098 C43.09212305 -0.00103903 44.81414043 -0.00335413 46.53613281 -0.01044846 C72.69379913 -0.09462148 95.00427278 5.53916198 114.625 23.93359375 C126.58208627 36.34300401 133.31576239 50.77975281 137 67.3984375 C137.19464844 68.18734375 137.38929688 68.97625 137.58984375 69.7890625 C138.18216159 73.55733222 138.18426953 77.27720802 138.1875 81.0859375 C138.19974609 81.85744141 138.21199219 82.62894531 138.22460938 83.42382812 C138.22983104 85.41676457 138.1226341 87.40927088 138 89.3984375 C137.34 90.0584375 136.68 90.7184375 136 91.3984375 C135.16339844 90.87894531 134.32679688 90.35945313 133.46484375 89.82421875 C124.92122567 84.65712781 116.60997345 81.14920386 107 78.3984375 C106.39341553 78.21958008 105.78683105 78.04072266 105.16186523 77.85644531 C84.85762663 73.55483587 63.75700646 78.31592652 46.32067871 88.86849976 C36.69631335 95.2134883 28.60173484 103.49724869 20.5078125 111.625 C19.34752952 112.7839313 18.18695018 113.94256596 17.02609253 115.10092163 C14.61439982 117.50969139 12.20629618 119.92197532 9.80078125 122.33691406 C6.73132014 125.41781961 3.65289418 128.48958664 0.57174873 131.55880165 C-1.81860625 133.94190495 -4.20414737 136.32978138 -6.58829117 138.71909714 C-7.72143325 139.85356391 -8.8560366 140.98657324 -9.99218369 142.11803055 C-18.13215252 150.21829868 -18.13215252 150.21829868 -25 159.3984375 C-45.81984779 156.65251269 -62.75895358 145.36265933 -76.25 129.7109375 C-90.7094304 110.67268747 -94.48699719 88.44292417 -91.71875 65.01855469 C-89.24479013 50.15371059 -81.06445653 36.32924835 -71 25.3984375 C-70.46117188 24.76808594 -69.92234375 24.13773438 -69.3671875 23.48828125 C-51.50201533 3.78272702 -25.09090675 -0.10337047 0 0 Z " fill="#BF4D8F" transform="translate(92,175.6015625)"/>
<path d="M0 0 C19.19039699 3.15458581 38.39980256 13.88832277 50.18066406 29.57177734 C60.77542931 44.46555578 66.61303728 60.41674159 66.4375 78.8125 C66.42847656 79.95251465 66.41945313 81.0925293 66.41015625 82.26708984 C66.0025406 102.16382887 58.44139997 119.40155644 45 134 C44.46117187 134.63035156 43.92234375 135.26070312 43.3671875 135.91015625 C32.27302826 148.14718114 13.91986913 156.89049308 -2.39941978 158.19124985 C-4.83805563 158.27040918 -7.26980966 158.29316584 -9.7097168 158.29052734 C-10.62342545 158.29724457 -11.53713409 158.30396179 -12.47853088 158.31088257 C-15.46881707 158.32972159 -18.45887708 158.33377979 -21.44921875 158.3359375 C-23.55133655 158.34237586 -25.65345347 158.34910496 -27.75556946 158.35610962 C-32.15241572 158.36804769 -36.54918362 158.37179409 -40.94604492 158.37060547 C-46.54277798 158.37040263 -52.13900127 158.39768425 -57.73561382 158.43214989 C-62.0760167 158.45453697 -66.41629926 158.45843939 -70.75675392 158.45738602 C-72.81815151 158.45972503 -74.87955329 158.46845103 -76.94089317 158.48405075 C-92.06088102 158.58775545 -105.68478427 157.47676334 -119.3125 150.25 C-119.97781738 149.90565918 -120.64313477 149.56131836 -121.32861328 149.20654297 C-127.12678834 146.11108607 -132.15864991 142.45437143 -137 138 C-137.84046875 137.25105469 -138.6809375 136.50210938 -139.546875 135.73046875 C-153.73940733 122.41959373 -163.42785806 102.15109145 -164.28125 82.52734375 C-164.45583693 72.36751079 -164.45583693 72.36751079 -163 68 C-160.5230618 69.21344952 -158.09746276 70.489404 -155.671875 71.8046875 C-135.52276153 82.57439902 -113.00358323 85.97613834 -90.73828125 79.38671875 C-86.62561303 77.86112082 -82.64249441 76.2072882 -78.6875 74.3125 C-78.07777344 74.02246094 -77.46804688 73.73242188 -76.83984375 73.43359375 C-65.29854025 67.46565476 -56.12690004 57.4177386 -47.0703125 48.30078125 C-45.86526535 47.09453817 -44.65984407 45.88866873 -43.45407104 44.68315125 C-40.94835907 42.1758883 -38.446001 39.66534428 -35.94628906 37.15209961 C-32.75405967 33.94279947 -29.55520455 30.740204 -26.35405159 27.53980732 C-23.87269097 25.05817407 -21.39394992 22.57393825 -18.91607285 20.08882713 C-17.73738454 18.90697571 -16.55810642 17.7257122 -15.37820816 16.54506874 C-13.73024634 14.89492281 -12.08562619 13.24151658 -10.44189453 11.5871582 C-9.96286179 11.10857864 -9.48382904 10.62999908 -8.99028015 10.13691711 C-5.78644904 6.9029722 -2.87231029 3.52515974 0 0 Z " fill="#A4E768" transform="translate(446,177)"/>
<path d="M0 0 C-1.21989494 2.4838067 -2.49591849 4.92421173 -3.8046875 7.36328125 C-14.42911473 27.40434919 -17.74122049 48.94328327 -11.40283203 71.08618164 C-4.85014757 91.58047755 9.47569951 105.63261933 24.328125 120.49609375 C25.37187328 121.54306935 26.41555259 122.59011373 27.45916748 123.63722229 C29.62207292 125.80604318 31.78696027 127.9728624 33.953125 130.13842773 C36.71387118 132.89907149 39.4676188 135.66658755 42.21974564 138.43582058 C44.36284109 140.59007105 46.51050324 142.73972428 48.65944672 144.88813972 C49.67683802 145.90670137 50.69263112 146.92686226 51.70670319 147.94872856 C56.86250231 153.14051116 61.85662789 157.99980048 68 162 C65.25407519 182.81984779 53.96422183 199.75895358 38.3125 213.25 C19.60112923 227.43871717 -2.35421819 231.44088061 -25.37890625 228.71875 C-45.74661029 225.46583175 -63.58491309 213.13961299 -76 197 C-88.74947873 177.95584143 -90.15794227 160.11111617 -90.23828125 137.80078125 C-90.24235678 136.83790884 -90.2464323 135.87503643 -90.25063133 134.88298607 C-90.27138234 129.78763427 -90.28573189 124.69230854 -90.29516602 119.59692383 C-90.30621785 114.38035524 -90.3406358 109.16421456 -90.38033772 103.94779682 C-90.40667612 99.89388828 -90.41487292 95.8400793 -90.41844749 91.78609276 C-90.42326763 89.86506441 -90.43474789 87.94403909 -90.45348549 86.02309608 C-90.58942645 71.16603102 -89.44076815 56.9965046 -82.25 43.625 C-81.90638428 42.96491943 -81.56276855 42.30483887 -81.20874023 41.62475586 C-78.11014916 35.85591459 -74.43002973 30.82813947 -70 26 C-69.33613281 25.24460937 -68.67226562 24.48921875 -67.98828125 23.7109375 C-52.86129025 7.43753867 -22.54635554 -7.51545185 0 0 Z " fill="#7EABD9" transform="translate(267,283)"/>
<path d="M0 0 C2.69366238 2.15640185 5.25907632 4.38990469 7.796875 6.7265625 C8.42722656 7.26539062 9.05757812 7.80421875 9.70703125 8.359375 C21.89425822 19.40838715 30.73489076 37.70670057 31.96910858 54.00031662 C32.25322449 60.35302607 32.21756717 66.70883006 32.1953125 73.06640625 C32.19733845 75.12179161 32.2002542 77.17717627 32.20401001 79.2325592 C32.20840985 83.52156478 32.20207886 87.81038175 32.18798828 92.09936523 C32.17090885 97.56041222 32.18074491 103.02101634 32.19870567 108.48204708 C32.20961635 112.72118891 32.20606379 116.9602281 32.1983223 121.19937325 C32.1963398 123.2113405 32.19870988 125.22331748 32.20576096 127.23527336 C32.26729858 149.72529725 27.74237113 167.1465159 14.796875 185.7265625 C14.32765625 186.40460938 13.8584375 187.08265625 13.375 187.78125 C0.97871158 203.77399247 -19.74548798 212.54849516 -39.203125 215.7265625 C-53.09551298 217.13163718 -53.09551298 217.13163718 -58.203125 213.7265625 C-57.67203125 212.84355469 -57.1409375 211.96054688 -56.59375 211.05078125 C-52.33114004 203.85472978 -48.49251536 196.83009768 -46.203125 188.7265625 C-45.9414856 187.80266724 -45.9414856 187.80266724 -45.67456055 186.86010742 C-41.56349944 170.72672175 -42.49004683 151.95420311 -49.203125 136.7265625 C-49.46013184 136.12070313 -49.71713867 135.51484375 -49.98193359 134.890625 C-56.22502645 120.35790057 -66.84703261 109.77898112 -77.90234375 98.796875 C-79.10858683 97.59182785 -80.31445627 96.38640657 -81.51997375 95.18063354 C-84.0272367 92.67492157 -86.53778072 90.1725635 -89.05102539 87.67285156 C-92.26032553 84.48062217 -95.462921 81.28176705 -98.66331768 78.08061409 C-101.14495093 75.59925347 -103.62918675 73.12051242 -106.11429787 70.64263535 C-107.29614929 69.46394704 -108.4774128 68.28466892 -109.65805626 67.10477066 C-111.30820219 65.45680884 -112.96160842 63.81218869 -114.6159668 62.16845703 C-115.09454636 61.68942429 -115.57312592 61.21039154 -116.06620789 60.71684265 C-119.3001528 57.51301154 -122.67796526 54.59887279 -126.203125 51.7265625 C-122.84493604 31.29757964 -111.27032818 12.46501615 -94.578125 0.1640625 C-65.71325301 -19.10851971 -28.77927011 -20.42626244 0 0 Z " fill="#ED8A19" transform="translate(303.203125,14.2734375)"/>
</svg>
